<svg xmlns="http://www.w3.org/2000/svg" xmlns:xlink="http://www.w3.org/1999/xlink" viewBox="0 0 372.06 43.2"><defs><linearGradient id="a" y1="16.33" x2="36.56" y2="16.33" gradientUnits="userSpaceOnUse"><stop offset="0" stop-color="#fff33b"/><stop offset="0.04" stop-color="#fee72e"/><stop offset="0.12" stop-color="#fed51b"/><stop offset="0.2" stop-color="#fdca10"/><stop offset="0.28" stop-color="#fdc70c"/><stop offset="0.67" stop-color="#f3903f"/><stop offset="0.89" stop-color="#ed683c"/><stop offset="1" stop-color="#e93e3a"/></linearGradient></defs><path d="M5.75,36.32a21.74,21.74,0,0,0,16,6.88,20.73,20.73,0,0,0,14.64-5.82.69.69,0,0,0,0-1l-1-1a.75.75,0,0,0-1,.12c-3.6,3-7.5,5-12.66,5s-9.13-.93-12.5-4.35" fill="#fff"/><path d="M60.9,34.19v7.63a.76.76,0,0,1-.78.78H58.86a.79.79,0,0,1-.78-.78V34.23Zm29.76-.5v8.13a.76.76,0,0,1-.78.78H88.62a.79.79,0,0,1-.78-.78V33.69Zm-2.82-3.91V22.32H60.9v8.39l-2.82.09V1.38A.79.79,0,0,1,58.86.6h1.26a.76.76,0,0,1,.78.78V19.8H87.84V1.38A.79.79,0,0,1,88.62.6h1.26a.76.76,0,0,1,.78.78V29.69Z" fill="#fff"/><path d="M118.2,33.27v8.55c0,.42-.36.78-1,.78h-1.08a.79.79,0,0,1-.78-.78V33.27Zm20.21-.39,4.87,8.64c.3.48.18,1.08-.42,1.08H141a.85.85,0,0,1-.84-.54l-5-9.12Zm-5.89-4.63-1.06-1.91c-.78.06-1.44.06-2.22.06h-11v2.34l-2.82.1V1.38a.76.76,0,0,1,.78-.78H131c7.32,0,13.38,5.52,13.38,12.84A13.13,13.13,0,0,1,134.52,26l1.22,2.16Zm-1.6-4.37a10.49,10.49,0,0,0,10.62-10.44c0-5.7-4.86-10.08-10.68-10.08h-12.6V23.88Z" fill="#fff"/><path d="M169.08,32a19.07,19.07,0,0,0,32.52-1.13l3.06-.1A21.77,21.77,0,0,1,166,32.11ZM164,26.75a21.82,21.82,0,0,1-.59-5.09,21.63,21.63,0,1,1,43.26,0,21.9,21.9,0,0,1-.14,2.44l-2.68.16a18.61,18.61,0,0,0,.18-2.6,19,19,0,1,0-37.34,4.92Z" fill="#fff"/><path d="M231.06,22.56V5.34h.06c4.95,6.55,9.06,12,12.46,16.44l3.27-.2L230.28,0h-1a.82.82,0,0,0-.9.78v22Z" fill="#fff"/><path d="M231.06,29.85v12a.79.79,0,0,1-.78.78h-1.14a.79.79,0,0,1-.78-.78V30Z" fill="#fff"/><path d="M261.12.6h-1.2a.79.79,0,0,0-.78.78V20.81l2.76-.17V1.38A.79.79,0,0,0,261.12.6Z" fill="#fff"/><path d="M259.14,37.5h-.06l-6.45-8.4-3.38.12c10.61,13.89,10.86,14,10.91,14h.78c.48,0,1-.24,1-.78V28.78l-2.76.1Z" fill="#fff"/><path d="M323.61,16.76a19,19,0,0,0-37.17,2.37l-2.71.31a21.63,21.63,0,0,1,42.56-2.82ZM287.3,27.9a19,19,0,0,0,36.27-1.26l2.73.07a21.69,21.69,0,0,1-41.72,1.42Z" fill="#fff"/><path d="M368.91,25.07a9.56,9.56,0,0,1,3.15,7.45c0,6-6.18,10.68-13.08,10.68a19.54,19.54,0,0,1-12.72-4.92c-.36-.3-.66-.6-.18-1.26l.54-.72c.42-.48.84-.66,1.32-.24s5,4.62,11.1,4.62c5.46,0,10.08-3.66,10.08-8,0-3.34-1.71-5.53-4.77-7.3m-17.48-10a10.7,10.7,0,0,1-1-4.72c0-4.5,3.6-10.62,13-10.62a19.7,19.7,0,0,1,10.32,3.06.86.86,0,0,1,.24,1.26,5.48,5.48,0,0,0-.48.78.86.86,0,0,1-1.32.3,17.59,17.59,0,0,0-8.82-2.82c-7.38,0-10.14,4.56-10.14,8a7.1,7.1,0,0,0,1.48,4.57" fill="#fff"/><path d="M8.42,8.29A19.05,19.05,0,0,0,3,21.66a21,21,0,0,0,3.53,11L3,32.67a22.32,22.32,0,0,1-3-11A21.66,21.66,0,0,1,21.72,0,20.56,20.56,0,0,1,36.3,5.58a.76.76,0,0,1,.06,1.08l-1,1c-.36.36-.66.3-1-.06A18.74,18.74,0,0,0,21.72,2.7,18.47,18.47,0,0,0,8.42,8.29" fill="url(#a)"/></svg>