<svg xmlns="http://www.w3.org/2000/svg" xmlns:xlink="http://www.w3.org/1999/xlink" viewBox="0 0 121 39" fill="#fff" fill-rule="evenodd" stroke="#000" stroke-linecap="round" stroke-linejoin="round"><use xlink:href="#F" x=".5" y=".5"/><defs><linearGradient x1="100.845976%" y1="51.7455308%" x2="-13.553623%" y2="46.9348358%" id="A"><stop stop-color="#0d1a26" offset="0%"/><stop stop-color="#283e52" offset="100%"/></linearGradient><linearGradient x1="62.1023273%" y1="0%" x2="108.19718%" y2="37.8635764%" id="B"><stop stop-color="#4285eb" offset="0%"/><stop stop-color="#2ec7ff" offset="100%"/></linearGradient><linearGradient x1="69.644116%" y1="0%" x2="54.0428975%" y2="108.456714%" id="C"><stop stop-color="#29cdff" offset="0%"/><stop stop-color="#148eff" offset="37.8600687%"/><stop stop-color="#0a60ff" offset="100%"/></linearGradient><linearGradient x1="69.6908165%" y1="-12.9743587%" x2="16.7228981%" y2="117.391248%" id="D"><stop stop-color="#fa816e" offset="0%"/><stop stop-color="#f74a5c" offset="41.472606%"/><stop stop-color="#f51d2c" offset="100%"/></linearGradient><linearGradient x1="68.1279872%" y1="-35.6905737%" x2="30.4400914%" y2="114.942679%" id="E"><stop stop-color="#fa8e7d" offset="0%"/><stop stop-color="#f74a5c" offset="51.2635191%"/><stop stop-color="#f51d2c" offset="100%"/></linearGradient></defs><symbol id="F" overflow="visible"><g stroke="none"><path d="M54.655 22.522h2.229l-3.486-10.021h-2.465l-3.479 10.021h2.153l.764-2.431h3.521l.764 2.431zm-2.549-8.104h.049l1.285 4.104h-2.618l1.285-4.104zm5.909 8.104h2.028v-4.271c0-.965.576-1.632 1.486-1.632s1.368.556 1.368 1.528v4.375h2.028v-4.799c0-1.743-.931-2.785-2.583-2.785-1.146 0-1.931.542-2.326 1.465h-.042v-1.326h-1.958v7.444zm9.021-9.16v1.715h-1.049v1.528h1.049v3.91c0 1.451.681 2.035 2.431 2.035.41 0 .757-.035.965-.083v-1.493a3.28 3.28 0 0 1-.493.035c-.597 0-.875-.271-.875-.84v-3.562h1.375v-1.528h-1.375v-1.715h-2.028zm7.784-.861v10.021h3.826c3.007 0 4.778-1.868 4.778-5.049s-1.771-4.972-4.778-4.972h-3.826zm2.097 1.729h1.479c1.847 0 2.889 1.153 2.889 3.25 0 2.167-1.014 3.306-2.889 3.306h-1.479V14.23zm11.305 2.187c.903 0 1.521.653 1.563 1.604h-3.16c.069-.931.708-1.604 1.597-1.604zm1.59 3.826c-.188.569-.757.937-1.5.937-1.035 0-1.708-.729-1.708-1.792v-.125h5.132v-.618c0-2.264-1.368-3.729-3.535-3.729-2.201 0-3.59 1.542-3.59 3.917 0 2.382 1.375 3.847 3.667 3.847 1.84 0 3.174-.979 3.396-2.437h-1.861zm3.125-2.979c0 1.097.722 1.833 2.132 2.153l1.375.306c.667.16.917.368.917.743 0 .486-.465.792-1.236.792-.806 0-1.299-.361-1.396-.986h-1.979c.111 1.451 1.333 2.41 3.319 2.41 1.965 0 3.313-.965 3.313-2.431 0-1.111-.604-1.701-2.097-2.035l-1.424-.306c-.653-.153-.972-.403-.972-.771 0-.479.458-.799 1.16-.799.75 0 1.229.368 1.271.965h1.868c-.028-1.444-1.243-2.389-3.111-2.389-1.91 0-3.139.931-3.139 2.347zm14.867 3.674c-1.007 0-1.632-.792-1.632-2.153 0-1.354.632-2.201 1.632-2.201 1.014 0 1.66.861 1.66 2.201 0 1.347-.646 2.153-1.66 2.153zm-.035 4.389c2.229 0 3.715-1.132 3.715-2.91v-7.34h-2v1.299h-.035c-.389-.854-1.229-1.417-2.299-1.417-1.889 0-3.056 1.451-3.056 3.812 0 2.326 1.201 3.729 3.021 3.729 1.076 0 1.951-.542 2.299-1.333h.042v1.306c0 .861-.583 1.444-1.632 1.444-.771 0-1.354-.354-1.514-.868h-1.986c.16 1.326 1.486 2.278 3.444 2.278zm5.319-2.806v-7.444h1.958v1.326h.042c.396-.924 1.181-1.465 2.326-1.465 1.653 0 2.583 1.042 2.583 2.785v4.799h-2.028v-4.375c0-.972-.458-1.528-1.368-1.528s-1.486.667-1.486 1.632v4.271h-2.028z" fill="url(#A)" fill-rule="nonzero"/><path d="M100.709 23.12h2.028v-7.444h-2.028z" fill="#111f2d"/><g fill-rule="nonzero"><path d="M101.777 14.232c.751 0 1.338-.59 1.338-1.328 0-.748-.587-1.338-1.338-1.338-.741 0-1.329.59-1.329 1.338a1.32 1.32 0 0 0 1.329 1.328z" fill="#f74455"/><path d="M17.616.659L.683 16.938c-.91.875-.91 2.289 0 3.164l16.933 16.279c.91.875 2.381.875 3.291 0l7.1-6.825a1.95 1.95 0 0 0 0-2.838 2.15 2.15 0 0 0-2.952 0l-5.382 5.174c-.227.218-.57.218-.797 0l-13.522-13c-.227-.218-.227-.548 0-.766l13.522-13c.227-.218.57-.218.797 0l5.382 5.174a2.15 2.15 0 0 0 2.952 0 1.95 1.95 0 0 0 0-2.838L20.908.637c-.914-.856-2.385-.849-3.292.023z" fill="url(#B)"/><path d="M17.616.659L.683 16.938c-.91.875-.91 2.289 0 3.164l16.933 16.279c.91.875 2.381.875 3.291 0l7.1-6.825a1.95 1.95 0 0 0 0-2.838 2.15 2.15 0 0 0-2.952 0l-5.382 5.174c-.227.218-.57.218-.797 0l-13.522-13c-.227-.218-.227-.548 0-.766l13.522-13c.564-.468 1.485-1.416 2.837-1.638 1.005-.165 2.103.198 3.295 1.088L20.908.637c-.914-.856-2.385-.849-3.292.023z" fill="url(#C)"/><path d="M29.646 25.203a2.15 2.15 0 0 0 2.952 0l5.237-5.035c.91-.875.91-2.289 0-3.164l-5.283-5.061c-.817-.783-2.14-.782-2.955.003a1.95 1.95 0 0 0 0 2.838l3.568 3.43c.227.218.227.548 0 .766l-3.52 3.384a1.95 1.95 0 0 0 0 2.838z" fill="url(#D)"/><path d="M14.774 18.601c0-2.435 2.039-4.395 4.572-4.395s4.572 1.96 4.572 4.395-2.039 4.395-4.572 4.395-4.572-1.96-4.572-4.395z" fill="url(#E)"/></g></g></symbol></svg>